<svg width="24" height="24" viewBox="0 0 24 24" fill="none" xmlns="http://www.w3.org/2000/svg">
<path d="M14.9983 7C14.9862 4.82497 14.8897 3.64706 14.1214 2.87868C13.2426 2 11.8284 2 9.00004 2H8.00004C5.17164 2 3.75734 2 2.87874 2.87868C2.00004 3.75736 2.00004 5.17157 2.00004 8V16C2.00004 18.8284 2.00004 20.2426 2.87874 21.1213C3.75734 22 5.17164 22 8.00004 22H9.00004C11.8284 22 13.2426 22 14.1214 21.1213C14.8897 20.3529 14.9862 19.175 14.9983 17" stroke="#1C274C" stroke-width="1.5" stroke-linecap="round"/>
<path d="M9.00024 12H22.0002M22.0002 12L18.5002 9M22.0002 12L18.5002 15" stroke="#1C274C" stroke-width="1.5" stroke-linecap="round" stroke-linejoin="round"/>
</svg>
