<svg width="27" height="18" viewBox="0 0 27 18" fill="none" xmlns="http://www.w3.org/2000/svg">
<g clip-path="url(#clip0_705_12)">
<path d="M15.1875 12.7031C15.1875 12.2812 15.2205 11.8887 15.2864 11.5254C15.3523 11.1621 15.46 10.8105 15.6094 10.4707C15.7588 10.1309 15.9829 9.86328 16.2817 9.66797C16.5806 9.47266 16.9365 9.375 17.3496 9.375C17.9121 9.875 18.5977 10.125 19.4062 10.125C20.2148 10.125 20.9004 9.875 21.4629 9.375C21.876 9.375 22.2319 9.47266 22.5308 9.66797C22.8296 9.86328 23.0537 10.1309 23.2031 10.4707C23.3525 10.8105 23.4602 11.1621 23.5261 11.5254C23.592 11.8887 23.625 12.2812 23.625 12.7031C23.625 13.1328 23.4866 13.498 23.2097 13.7988C22.9329 14.0996 22.6011 14.25 22.2144 14.25H16.5981C16.2114 14.25 15.8796 14.0996 15.6028 13.7988C15.3259 13.498 15.1875 13.1328 15.1875 12.7031ZM16.875 7.5C16.875 6.875 17.1211 6.34375 17.6133 5.90625C18.1055 5.46875 18.7031 5.25 19.4062 5.25C20.1094 5.25 20.707 5.46875 21.1992 5.90625C21.6914 6.34375 21.9375 6.875 21.9375 7.5C21.9375 8.125 21.6914 8.65625 21.1992 9.09375C20.707 9.53125 20.1094 9.75 19.4062 9.75C18.7031 9.75 18.1055 9.53125 17.6133 9.09375C17.1211 8.65625 16.875 8.125 16.875 7.5ZM3.375 13.125V12.375C3.375 12.2656 3.41455 12.1758 3.49365 12.1055C3.57275 12.0352 3.67383 12 3.79688 12H13.0781C13.2012 12 13.3022 12.0352 13.3813 12.1055C13.4604 12.1758 13.5 12.2656 13.5 12.375V13.125C13.5 13.2344 13.4604 13.3242 13.3813 13.3945C13.3022 13.4648 13.2012 13.5 13.0781 13.5H3.79688C3.67383 13.5 3.57275 13.4648 3.49365 13.3945C3.41455 13.3242 3.375 13.2344 3.375 13.125ZM8.4375 10.125V9.375C8.4375 9.26563 8.47705 9.17578 8.55615 9.10547C8.63525 9.03516 8.73633 9 8.85938 9H13.0781C13.2012 9 13.3022 9.03516 13.3813 9.10547C13.4604 9.17578 13.5 9.26563 13.5 9.375V10.125C13.5 10.2344 13.4604 10.3242 13.3813 10.3945C13.3022 10.4648 13.2012 10.5 13.0781 10.5H8.85938C8.73633 10.5 8.63525 10.4648 8.55615 10.3945C8.47705 10.3242 8.4375 10.2344 8.4375 10.125ZM3.375 10.125V9.375C3.375 9.26563 3.41455 9.17578 3.49365 9.10547C3.57275 9.03516 3.67383 9 3.79688 9H6.32812C6.45117 9 6.55225 9.03516 6.63135 9.10547C6.71045 9.17578 6.75 9.26563 6.75 9.375V10.125C6.75 10.2344 6.71045 10.3242 6.63135 10.3945C6.55225 10.4648 6.45117 10.5 6.32812 10.5H3.79688C3.67383 10.5 3.57275 10.4648 3.49365 10.3945C3.41455 10.3242 3.375 10.2344 3.375 10.125ZM3.375 7.125V6.375C3.375 6.26563 3.41455 6.17578 3.49365 6.10547C3.57275 6.03516 3.67383 6 3.79688 6H13.0781C13.2012 6 13.3022 6.03516 13.3813 6.10547C13.4604 6.17578 13.5 6.26563 13.5 6.375V7.125C13.5 7.23437 13.4604 7.32422 13.3813 7.39453C13.3022 7.46484 13.2012 7.5 13.0781 7.5H3.79688C3.67383 7.5 3.57275 7.46484 3.49365 7.39453C3.41455 7.32422 3.375 7.23437 3.375 7.125ZM25.3125 3H1.6875V1.875C1.6875 1.76563 1.72705 1.67578 1.80615 1.60547C1.88525 1.53516 1.98633 1.5 2.10938 1.5H24.8906C25.0137 1.5 25.1147 1.53516 25.1938 1.60547C25.2729 1.67578 25.3125 1.76563 25.3125 1.875V3ZM0 1.875V16.125C0 16.6406 0.206543 17.082 0.619629 17.4492C1.03271 17.8164 1.5293 18 2.10938 18H24.8906C25.4707 18 25.9673 17.8164 26.3804 17.4492C26.7935 17.082 27 16.6406 27 16.125V1.875C27 1.35938 26.7935 0.917969 26.3804 0.550781C25.9673 0.183594 25.4707 0 24.8906 0H2.10938C1.5293 0 1.03271 0.183594 0.619629 0.550781C0.206543 0.917969 0 1.35938 0 1.875Z" fill="black"/>
</g>
<defs>
<clipPath id="clip0_705_12">
<rect width="27" height="18" fill="white" transform="matrix(-1 0 0 1 27 0)"/>
</clipPath>
</defs>
</svg>
