<svg width="24" height="24" viewBox="0 0 24 24" fill="none" xmlns="http://www.w3.org/2000/svg">
<path d="M6 11L6 17" stroke="#1C274C" stroke-width="1.5" stroke-linecap="round"/>
<path d="M10 11L10 17" stroke="#1C274C" stroke-width="1.5" stroke-linecap="round"/>
<path d="M14 11L14 17" stroke="#1C274C" stroke-width="1.5" stroke-linecap="round"/>
<path d="M18 11L18 17" stroke="#1C274C" stroke-width="1.5" stroke-linecap="round"/>
<path d="M3.08229 22C1.63924 22 1.63923 20 3.08229 20H20.8698C22.3621 20 22.3913 22 20.8698 22H3.08229Z" stroke="#1C274C" stroke-width="1.5" stroke-linejoin="round"/>
<path d="M11.8015 1.00021C12.533 0.993106 13.2674 1.16304 13.8845 1.51093L21.317 5.70097C22.6234 6.4374 21.9305 8 20.2975 8H3.70254C2.08721 8 1.38322 6.46525 2.65531 5.71694L9.751 1.5428C10.3534 1.18846 11.076 1.00724 11.8015 1.00021Z" stroke="#1C274C" stroke-width="1.5" stroke-linecap="round"/>
</svg>
