<svg width="24" height="24" viewBox="0 0 24 24" fill="none" xmlns="http://www.w3.org/2000/svg">
<path d="M12 3L12.295 2.31C12.2018 2.27011 12.1014 2.24954 12 2.24954C11.8986 2.24954 11.7982 2.27011 11.705 2.31L12 3ZM12 21L11.628 21.651C11.7413 21.7157 11.8695 21.7498 12 21.7498C12.1305 21.7498 12.2587 21.7157 12.372 21.651L12 21ZM8.024 18.727L7.651 19.379L8.023 18.727H8.024ZM11.704 2.311L5.312 5.05L5.9 6.43L12.294 3.69L11.705 2.31L11.704 2.311ZM4.25 6.659V13.519H5.75V6.659H4.25ZM7.651 19.379L11.628 21.651L12.372 20.349L8.395 18.076L7.651 19.379ZM12.372 21.651L16.349 19.379L15.605 18.076L11.628 20.349L12.372 21.651ZM19.75 13.518V6.66H18.25V13.52H19.75V13.518ZM18.69 5.051L12.295 2.311L11.705 3.689L18.099 6.43L18.689 5.051H18.69ZM19.75 6.66C19.75 5.96 19.333 5.327 18.69 5.051L18.099 6.43C18.1439 6.44936 18.1821 6.48147 18.209 6.52235C18.2358 6.56324 18.2501 6.61109 18.25 6.66H19.75ZM16.349 19.379C17.3821 18.7887 18.2407 17.9357 18.838 16.9066C19.4353 15.8775 19.7499 14.7088 19.75 13.519H18.25C18.2498 14.4443 18.0051 15.3531 17.5406 16.1533C17.0761 16.9536 16.4083 17.6169 15.605 18.076L16.349 19.379ZM4.25 13.519C4.25011 14.7088 4.56473 15.8775 5.16199 16.9066C5.75925 17.9357 6.61792 18.7887 7.651 19.379L8.395 18.076C7.59151 17.6168 6.92367 16.9534 6.45917 16.1529C5.99468 15.3525 5.75002 14.4435 5.75 13.518H4.25V13.519ZM5.31 5.05C4.99541 5.18497 4.72731 5.40925 4.5389 5.69506C4.35049 5.98087 4.25004 6.31667 4.25 6.659H5.75C5.75 6.559 5.81 6.468 5.902 6.428L5.31 5.052V5.05Z" fill="black"/>
<path d="M15 10L11 14L9 12" stroke="black" stroke-width="1.5" stroke-linecap="round" stroke-linejoin="round"/>
</svg>
