<svg width="24" height="24" viewBox="0 0 24 24" fill="none" xmlns="http://www.w3.org/2000/svg">
<path d="M9.885 7.385H17.115C17.257 7.385 17.376 7.433 17.472 7.529C17.5673 7.625 17.615 7.74367 17.615 7.885C17.615 8.027 17.5673 8.14567 17.472 8.241C17.376 8.337 17.257 8.385 17.115 8.385H9.885C9.743 8.385 9.624 8.337 9.528 8.241C9.432 8.145 9.38433 8.026 9.385 7.884C9.385 7.742 9.43267 7.62333 9.528 7.528C9.624 7.43267 9.743 7.385 9.885 7.385ZM9.885 10.154H17.115C17.257 10.154 17.376 10.202 17.472 10.298C17.5673 10.394 17.615 10.513 17.615 10.655C17.615 10.7963 17.5673 10.915 17.472 11.011C17.376 11.1063 17.257 11.154 17.115 11.154H9.885C9.743 11.154 9.624 11.106 9.528 11.01C9.432 10.914 9.38433 10.795 9.385 10.653C9.385 10.511 9.43267 10.3923 9.528 10.297C9.624 10.2017 9.743 10.154 9.885 10.154ZM11.846 21H6C5.436 21 4.96167 20.8077 4.577 20.423C4.19233 20.0383 4 19.564 4 19V17.038C4 16.8093 4.07733 16.6177 4.232 16.463C4.38667 16.3083 4.57867 16.231 4.808 16.231H7V4.615C7 4.171 7.15833 3.791 7.475 3.475C7.791 3.15833 8.171 3 8.615 3H18.385C18.829 3 19.209 3.15833 19.525 3.475C19.8417 3.791 20 4.171 20 4.615V10.89C19.82 10.8953 19.649 10.9143 19.487 10.947C19.325 10.9803 19.1627 11.027 19 11.087V4.615C19 4.43567 18.9423 4.28833 18.827 4.173C18.7117 4.05767 18.5643 4 18.385 4H8.615C8.43567 4 8.28833 4.05767 8.173 4.173C8.05767 4.28833 8 4.43567 8 4.615V16.231H13.346L12.346 17.231H5V19C5 19.2833 5.096 19.521 5.288 19.713C5.48 19.905 5.71733 20.0007 6 20H11.846V21ZM14.231 20.192V19.12C14.231 19.018 14.2497 18.919 14.287 18.823C14.3237 18.7277 14.3857 18.6363 14.473 18.549L19.563 13.484C19.6623 13.3853 19.7643 13.3187 19.869 13.284C19.9737 13.2493 20.0787 13.232 20.184 13.232C20.2987 13.232 20.4113 13.2533 20.522 13.296C20.632 13.3393 20.7323 13.4037 20.823 13.489L21.748 14.434C21.83 14.5327 21.8927 14.635 21.936 14.741C21.9787 14.8477 22 14.9543 22 15.061C22 15.1677 21.9793 15.275 21.938 15.383C21.8973 15.491 21.834 15.5943 21.748 15.693L16.683 20.759C16.5957 20.8457 16.504 20.9077 16.408 20.945C16.3127 20.9823 16.214 21.001 16.112 21.001H15.038C14.8093 21.001 14.6177 20.9237 14.463 20.769C14.3083 20.6143 14.231 20.4223 14.231 20.193M15.115 20.116H16.065L19.533 16.643L19.063 16.168L18.608 15.68L15.115 19.166V20.116ZM19.063 16.168L18.608 15.68L19.533 16.643L19.063 16.168Z" fill="black"/>
</svg>
