<svg width="27" height="18" viewBox="0 0 27 18" fill="none" xmlns="http://www.w3.org/2000/svg">
<g clip-path="url(#clip0_704_10)">
<path d="M11.8125 12.7031C11.8125 12.2812 11.7795 11.8887 11.7136 11.5254C11.6477 11.1621 11.54 10.8105 11.3906 10.4707C11.2412 10.1309 11.0171 9.86328 10.7183 9.66797C10.4194 9.47266 10.0635 9.375 9.65039 9.375C9.08789 9.875 8.40234 10.125 7.59375 10.125C6.78516 10.125 6.09961 9.875 5.53711 9.375C5.12402 9.375 4.76807 9.47266 4.46924 9.66797C4.17041 9.86328 3.94629 10.1309 3.79688 10.4707C3.64746 10.8105 3.53979 11.1621 3.47388 11.5254C3.40796 11.8887 3.375 12.2812 3.375 12.7031C3.375 13.1328 3.51343 13.498 3.79028 13.7988C4.06714 14.0996 4.39893 14.25 4.78564 14.25H10.4019C10.7886 14.25 11.1204 14.0996 11.3972 13.7988C11.6741 13.498 11.8125 13.1328 11.8125 12.7031ZM10.125 7.5C10.125 6.875 9.87891 6.34375 9.38672 5.90625C8.89453 5.46875 8.29687 5.25 7.59375 5.25C6.89063 5.25 6.29297 5.46875 5.80078 5.90625C5.30859 6.34375 5.0625 6.875 5.0625 7.5C5.0625 8.125 5.30859 8.65625 5.80078 9.09375C6.29297 9.53125 6.89063 9.75 7.59375 9.75C8.29687 9.75 8.89453 9.53125 9.38672 9.09375C9.87891 8.65625 10.125 8.125 10.125 7.5ZM23.625 13.125V12.375C23.625 12.2656 23.5854 12.1758 23.5063 12.1055C23.4272 12.0352 23.3262 12 23.2031 12H13.9219C13.7988 12 13.6978 12.0352 13.6187 12.1055C13.5396 12.1758 13.5 12.2656 13.5 12.375V13.125C13.5 13.2344 13.5396 13.3242 13.6187 13.3945C13.6978 13.4648 13.7988 13.5 13.9219 13.5H23.2031C23.3262 13.5 23.4272 13.4648 23.5063 13.3945C23.5854 13.3242 23.625 13.2344 23.625 13.125ZM18.5625 10.125V9.375C18.5625 9.26563 18.5229 9.17578 18.4438 9.10547C18.3647 9.03516 18.2637 9 18.1406 9H13.9219C13.7988 9 13.6978 9.03516 13.6187 9.10547C13.5396 9.17578 13.5 9.26563 13.5 9.375V10.125C13.5 10.2344 13.5396 10.3242 13.6187 10.3945C13.6978 10.4648 13.7988 10.5 13.9219 10.5H18.1406C18.2637 10.5 18.3647 10.4648 18.4438 10.3945C18.5229 10.3242 18.5625 10.2344 18.5625 10.125ZM23.625 10.125V9.375C23.625 9.26563 23.5854 9.17578 23.5063 9.10547C23.4272 9.03516 23.3262 9 23.2031 9H20.6719C20.5488 9 20.4478 9.03516 20.3687 9.10547C20.2896 9.17578 20.25 9.26563 20.25 9.375V10.125C20.25 10.2344 20.2896 10.3242 20.3687 10.3945C20.4478 10.4648 20.5488 10.5 20.6719 10.5H23.2031C23.3262 10.5 23.4272 10.4648 23.5063 10.3945C23.5854 10.3242 23.625 10.2344 23.625 10.125ZM23.625 7.125V6.375C23.625 6.26563 23.5854 6.17578 23.5063 6.10547C23.4272 6.03516 23.3262 6 23.2031 6H13.9219C13.7988 6 13.6978 6.03516 13.6187 6.10547C13.5396 6.17578 13.5 6.26563 13.5 6.375V7.125C13.5 7.23437 13.5396 7.32422 13.6187 7.39453C13.6978 7.46484 13.7988 7.5 13.9219 7.5H23.2031C23.3262 7.5 23.4272 7.46484 23.5063 7.39453C23.5854 7.32422 23.625 7.23437 23.625 7.125ZM1.6875 3H25.3125V1.875C25.3125 1.76563 25.2729 1.67578 25.1938 1.60547C25.1147 1.53516 25.0137 1.5 24.8906 1.5H2.10938C1.98633 1.5 1.88525 1.53516 1.80615 1.60547C1.72705 1.67578 1.6875 1.76563 1.6875 1.875V3ZM27 1.875V16.125C27 16.6406 26.7935 17.082 26.3804 17.4492C25.9673 17.8164 25.4707 18 24.8906 18H2.10938C1.5293 18 1.03271 17.8164 0.619629 17.4492C0.206543 17.082 0 16.6406 0 16.125V1.875C0 1.35938 0.206543 0.917969 0.619629 0.550781C1.03271 0.183594 1.5293 0 2.10938 0H24.8906C25.4707 0 25.9673 0.183594 26.3804 0.550781C26.7935 0.917969 27 1.35938 27 1.875Z" fill="black"/>
</g>
<defs>
<clipPath id="clip0_704_10">
<rect width="27" height="18" fill="white"/>
</clipPath>
</defs>
</svg>
