<svg width="24" height="24" viewBox="0 0 24 24" fill="none" xmlns="http://www.w3.org/2000/svg">
<path d="M7.827 10.635C7.04633 10.635 6.37967 10.359 5.827 9.807C5.27567 9.255 5 8.58834 5 7.807C5 7.027 5.276 6.361 5.828 5.809C6.38 5.257 7.04633 4.981 7.827 4.981C8.60767 4.981 9.274 5.257 9.826 5.809C10.378 6.361 10.654 7.02734 10.654 7.808C10.654 8.588 10.378 9.25434 9.826 9.807C9.274 10.359 8.60833 10.635 7.827 10.635ZM7.826 9.635C8.33267 9.635 8.764 9.45734 9.12 9.102C9.476 8.74734 9.654 8.31634 9.654 7.809C9.654 7.30234 9.47633 6.87067 9.121 6.514C8.76633 6.15867 8.33533 5.981 7.828 5.981C7.32133 5.981 6.89 6.15834 6.534 6.513C6.178 6.86834 6 7.29967 6 7.807C6 8.31367 6.17767 8.745 6.533 9.101C6.88767 9.457 7.31867 9.635 7.826 9.635ZM16.192 19C15.412 19 14.7457 18.724 14.193 18.172C13.641 17.62 13.365 16.9537 13.365 16.173C13.365 15.3923 13.641 14.726 14.193 14.174C14.745 13.622 15.4117 13.346 16.193 13.346C16.973 13.346 17.639 13.622 18.191 14.174C18.743 14.726 19.019 15.3927 19.019 16.174C19.019 16.954 18.743 17.62 18.191 18.172C17.639 18.724 16.9727 19 16.192 19ZM16.192 18C16.6987 18 17.13 17.8223 17.486 17.467C17.8413 17.1123 18.019 16.6813 18.019 16.174C18.019 15.6673 17.8417 15.236 17.487 14.88C17.1317 14.524 16.7003 14.346 16.193 14.346C15.6863 14.346 15.255 14.5237 14.899 14.879C14.543 15.2337 14.365 15.6647 14.365 16.172C14.365 16.6787 14.5427 17.11 14.898 17.466C15.2527 17.822 15.6847 18 16.192 18ZM5.881 18.808L5.192 18.119L18.138 5.173L18.827 5.862L5.881 18.808Z" fill="black"/>
</svg>
