<svg width="24" height="24" viewBox="0 0 24 24" fill="none" xmlns="http://www.w3.org/2000/svg">
<path d="M5 12C5 9.191 5 7.787 5.674 6.778C5.96591 6.34106 6.34106 5.96591 6.778 5.674C7.787 5 9.19 5 12 5C14.809 5 16.213 5 17.222 5.674C17.6589 5.96591 18.0341 6.34106 18.326 6.778C19 7.787 19 9.19 19 12C19 14.809 19 16.213 18.326 17.222C18.034 17.6589 17.6589 18.034 17.222 18.326C16.213 19 14.81 19 12 19C9.191 19 7.787 19 6.778 18.326C6.34109 18.034 5.96595 17.6589 5.674 17.222C5 16.213 5 14.81 5 12Z" stroke="black" stroke-width="1.5"/>
<path d="M12 9V12.077L14 14" stroke="black" stroke-width="1.5" stroke-linecap="round" stroke-linejoin="round"/>
<path d="M16.778 5.5L16.696 5.132C16.362 3.631 16.196 2.88 15.647 2.44C15.1 2 14.33 2 12.791 2H11.21C9.66999 2 8.89999 2 8.35299 2.44C7.80399 2.88 7.63799 3.63 7.30299 5.132L7.22299 5.5" stroke="black" stroke-width="1.5"/>
<path d="M16.778 5.5L16.696 5.132C16.362 3.631 16.196 2.88 15.647 2.44C15.1 2 14.33 2 12.791 2H11.21C9.66999 2 8.89999 2 8.35299 2.44C7.80399 2.88 7.63799 3.63 7.30299 5.132L7.22299 5.5M16.778 18.5L16.696 18.868C16.362 20.369 16.196 21.12 15.647 21.56C15.099 22 14.329 22 12.791 22H11.21C9.67099 22 8.90199 22 8.35399 21.56C7.80499 21.12 7.63899 20.37 7.30399 18.868L7.22399 18.5" stroke="black" stroke-width="1.5"/>
</svg>
