<svg width="24" height="24" viewBox="0 0 24 24" fill="none" xmlns="http://www.w3.org/2000/svg">
<path d="M3 10.417C3 7.21938 3 5.62059 3.37752 5.08272C3.75503 4.54485 5.25832 4.03027 8.26491 3.0011L8.83772 2.80503C10.405 2.26855 11.1886 2.00031 12 2.00031C12.8114 2.00031 13.595 2.26855 15.1623 2.80503L15.7351 3.0011C18.7417 4.03027 20.245 4.54485 20.6225 5.08272C21 5.62059 21 7.21938 21 10.417C21 10.8999 21 11.4237 21 11.9917C21 17.6297 16.761 20.3658 14.1014 21.5276C13.38 21.8427 13.0193 22.0003 12 22.0003C10.9807 22.0003 10.62 21.8427 9.89856 21.5276C7.23896 20.3658 3 17.6297 3 11.9917C3 11.4237 3 10.8999 3 10.417Z" stroke="#1C274C" stroke-width="1.5"/>
</svg>
