<svg width="24" height="24" viewBox="0 0 24 24" fill="none" xmlns="http://www.w3.org/2000/svg">
<path d="M20 14.5L19.26 9.696C19.1874 9.2241 18.9484 8.79373 18.5862 8.48268C18.224 8.17163 17.7624 8.00042 17.285 8H6.71599C6.2382 7.99994 5.77617 8.17094 5.41353 8.48203C5.0509 8.79312 4.81161 9.22376 4.73899 9.696L3.35399 18.696C3.31016 18.981 3.32848 19.2721 3.40769 19.5494C3.48691 19.8267 3.62515 20.0836 3.81293 20.3024C4.00072 20.5212 4.23361 20.6969 4.49563 20.8173C4.75766 20.9377 5.04262 21 5.33099 21H12" stroke="black" stroke-width="1.5" stroke-linecap="round" stroke-linejoin="round"/>
<path d="M14 19L17 22L22 17M14 5C14 4.46957 13.7893 3.96086 13.4142 3.58579C13.0391 3.21071 12.5304 3 12 3C11.4696 3 10.9609 3.21071 10.5858 3.58579C10.2107 3.96086 10 4.46957 10 5" stroke="black" stroke-width="1.5" stroke-linecap="round" stroke-linejoin="round"/>
</svg>
