<svg width="24" height="24" viewBox="0 0 24 24" fill="none" xmlns="http://www.w3.org/2000/svg">
<path d="M13.056 13.052C14.516 12.0753 15.671 10.995 16.521 9.811C17.371 8.627 17.796 7.45667 17.796 6.3C17.796 5.6 17.654 5.04167 17.37 4.625C17.086 4.20833 16.7107 4 16.244 4C15.2687 4 14.4553 4.669 13.804 6.007C13.1527 7.345 12.827 9.001 12.827 10.975C12.827 11.3883 12.847 11.7663 12.887 12.109C12.9277 12.4517 12.984 12.766 13.056 13.052ZM3.98 20V18.538H5.441V20H3.98ZM7.614 20V18.538H9.076V20H7.614ZM11.249 20V18.538H12.711V20H11.249ZM14.884 20V18.538H16.345V20H14.884ZM18.518 20V18.538H19.98V20H18.518ZM3.69 16.288L3 15.6L4.6 14L3 12.4L3.688 11.712L5.288 13.312L6.888 11.712L7.577 12.4L5.977 14L7.577 15.6L6.888 16.288L5.288 14.688L3.69 16.288ZM14.814 16C14.314 16 13.8717 15.8817 13.487 15.645C13.103 15.4083 12.7863 15.0543 12.537 14.583C12.1463 14.8163 11.7363 15.031 11.307 15.227C10.8783 15.423 10.4373 15.613 9.984 15.797L9.63 14.863C10.0707 14.6837 10.5037 14.4917 10.929 14.287C11.3543 14.0823 11.7603 13.8657 12.147 13.637C12.0383 13.2703 11.9567 12.8603 11.902 12.407C11.8473 11.955 11.82 11.466 11.82 10.94C11.82 8.60467 12.234 6.69733 13.062 5.218C13.8913 3.73933 14.952 3 16.244 3C17.008 3 17.6233 3.30167 18.09 3.905C18.5567 4.50833 18.79 5.31433 18.79 6.323C18.79 7.69233 18.307 9.05467 17.341 10.41C16.375 11.7647 15.0647 12.9747 13.41 14.04C13.578 14.362 13.782 14.6033 14.022 14.764C14.262 14.9247 14.532 15.0053 14.832 15.006C15.3687 15.006 15.937 14.75 16.537 14.238C17.1377 13.7267 17.6777 13.04 18.157 12.178L19.021 12.587C18.9303 13.1137 18.8963 13.577 18.919 13.977C18.9423 14.377 19.0533 14.7203 19.252 15.007C19.47 14.8983 19.6787 14.773 19.878 14.631C20.0773 14.4883 20.3193 14.248 20.604 13.91L21.39 14.538C20.9567 15.01 20.556 15.3717 20.188 15.623C19.8207 15.8743 19.472 16 19.142 16C18.8433 16 18.5853 15.8317 18.368 15.495C18.1507 15.1583 18.0017 14.735 17.921 14.225C17.5183 14.7697 17.0307 15.2017 16.458 15.521C15.8847 15.8403 15.336 16 14.814 16Z" fill="black"/>
</svg>
