<svg width="24" height="24" viewBox="0 0 24 24" fill="none" xmlns="http://www.w3.org/2000/svg">
<path fill-rule="evenodd" clip-rule="evenodd" d="M14.7588 4H18.8571C19.4633 4 20.0447 4.24082 20.4734 4.66947C20.902 5.09812 21.1428 5.67951 21.1428 6.28571V10.384C21.1428 10.6871 21.0223 10.9777 20.808 11.192L13.0446 18.9554C12.6159 19.3839 12.0346 19.6247 11.4286 19.6247C10.8225 19.6247 10.2412 19.3839 9.81256 18.9554L6.18741 15.3303C5.75891 14.9017 5.51819 14.3204 5.51819 13.7143C5.51819 13.1082 5.75891 12.5269 6.18741 12.0983L13.9508 4.33486C14.1651 4.12051 14.4558 4.00006 14.7588 4Z" stroke="black" stroke-width="1.14286" stroke-linecap="round" stroke-linejoin="round"/>
<path d="M9.71429 18.8571L7.41372 20.0069C7.12724 20.1501 6.81385 20.2316 6.49387 20.2459C6.17389 20.2603 5.85446 20.2073 5.5563 20.0902C5.25813 19.9732 4.9879 19.7948 4.76311 19.5666C4.53832 19.3385 4.36399 19.0656 4.25144 18.7657L2.40572 13.8446C2.21356 13.3319 2.21181 12.7673 2.40078 12.2534C2.58976 11.7396 2.9569 11.3106 3.43544 11.0446L12 6.28572" stroke="black" stroke-width="1.14286" stroke-linecap="round" stroke-linejoin="round"/>
<path d="M19.4286 6.85714C19.4286 6.22595 18.9169 5.71428 18.2857 5.71428C17.6546 5.71428 17.1429 6.22595 17.1429 6.85714C17.1429 7.48832 17.6546 7.99999 18.2857 7.99999C18.9169 7.99999 19.4286 7.48832 19.4286 6.85714Z" fill="black"/>
</svg>
